<?xml version="1.0" standalone="no"?>
<!DOCTYPE svg PUBLIC "-//W3C//DTD SVG 20010904//EN"
 "http://www.w3.org/TR/2001/REC-SVG-20010904/DTD/svg10.dtd">
<svg version="1.0" xmlns="http://www.w3.org/2000/svg"
 width="700.000000pt" height="700.000000pt" viewBox="0 0 700.000000 700.000000"
 preserveAspectRatio="xMidYMid meet">
<metadata>
Created by potrace 1.11, written by Peter Selinger 2001-2013
</metadata>
<g transform="translate(0.000000,700.000000) scale(0.100000,-0.100000)"
fill="#000000" stroke="none">
<path d="M1428 5947 c-54 -21 -61 -59 -61 -295 l1 -213 -47 5 c-25 3 -73 9
-106 13 -147 17 -193 4 -220 -62 -9 -23 -11 -503 -11 -2045 1 -1999 1 -2015
21 -2042 30 -40 64 -51 198 -63 37 -4 76 -8 85 -10 9 -1 51 -6 92 -10 41 -3
82 -8 90 -10 8 -2 48 -7 89 -10 41 -4 82 -8 92 -10 10 -2 50 -7 90 -10 40 -4
80 -8 88 -10 9 -1 52 -6 96 -10 44 -4 82 -8 85 -10 3 -2 43 -6 90 -10 47 -4
87 -8 90 -10 3 -2 41 -6 84 -10 44 -3 82 -8 85 -9 3 -2 44 -7 91 -10 47 -4 94
-9 105 -11 11 -2 50 -7 87 -10 37 -3 77 -8 90 -10 21 -3 72 -9 188 -21 60 -6
101 -10 250 -28 316 -39 465 -41 670 -11 14 2 54 6 90 10 36 4 76 8 90 10 64
9 130 16 185 20 33 3 71 7 85 10 14 2 54 7 90 10 36 3 72 8 80 10 8 2 51 7 95
10 44 3 87 8 95 10 8 2 45 7 82 10 37 3 75 7 85 9 10 2 56 7 103 11 47 4 87 8
90 10 3 2 43 6 90 10 47 4 87 8 90 10 3 2 40 6 82 9 42 4 85 9 95 10 10 2 52
7 93 11 41 3 82 8 90 10 8 2 45 7 82 10 37 3 75 7 85 9 10 2 50 7 88 10 66 7
85 9 192 21 54 6 84 21 108 53 20 27 20 46 20 2032 1 1103 -2 2020 -6 2039
-11 52 -48 83 -100 85 -41 1 -133 -7 -235 -20 l-42 -5 0 213 c0 219 -5 249
-41 282 -37 33 -86 28 -231 -25 -74 -27 -144 -53 -155 -58 -11 -5 -128 -49
-260 -97 -132 -48 -370 -135 -530 -194 -159 -59 -348 -129 -420 -155 -71 -26
-172 -63 -222 -82 -126 -48 -214 -68 -304 -72 -121 -4 -200 15 -474 117 -1041
386 -1583 583 -1615 587 -19 2 -47 -2 -62 -8z m250 -286 c42 -16 163 -61 267
-99 105 -39 303 -112 440 -162 138 -51 291 -107 340 -125 50 -18 194 -71 320
-117 127 -47 241 -88 255 -91 14 -3 28 -7 32 -8 4 -1 31 -7 60 -14 l53 -12 1
-1289 c1 -709 2 -1297 3 -1306 0 -10 14 -32 29 -49 40 -44 101 -49 143 -11 16
15 33 41 37 57 4 17 8 607 7 1313 0 706 3 1286 7 1288 4 2 26 7 50 10 54 8
135 34 423 141 217 80 341 125 850 313 116 43 279 103 364 134 84 31 156 55
159 51 3 -3 5 -847 5 -1877 l1 -1872 -65 -24 c-35 -13 -104 -39 -154 -57 -49
-18 -421 -154 -825 -303 -404 -149 -764 -276 -799 -282 -87 -15 -196 -14 -274
4 -35 8 -176 56 -313 107 -137 50 -267 98 -289 106 -126 45 -563 206 -580 213
-11 5 -157 59 -325 121 -168 61 -307 113 -310 116 -8 7 -5 3753 3 3753 4 0 42
-13 85 -29z m-353 -439 c3 -1 13 -2 24 -2 18 0 18 -48 18 -1672 0 -920 3
-1689 7 -1709 3 -20 16 -45 29 -57 12 -11 270 -112 597 -232 710 -261 660
-242 660 -247 0 -2 -10 -1 -22 1 -13 3 -50 8 -83 12 -33 3 -71 7 -85 9 -14 2
-56 6 -95 10 -38 4 -83 9 -100 11 -38 5 -115 13 -180 20 -27 2 -84 9 -125 14
-41 5 -104 12 -140 15 -36 3 -72 8 -80 10 -8 2 -49 7 -90 10 -41 4 -88 8 -105
10 -16 2 -50 6 -75 9 -25 3 -72 8 -105 12 -33 4 -85 10 -115 13 l-55 6 -1
1880 c-1 1034 0 1883 2 1886 2 4 105 -3 119 -9z m4580 -1871 c1 -1035 -2
-1884 -5 -1886 -3 -1 -37 -6 -77 -10 -40 -4 -85 -8 -100 -10 -15 -2 -57 -7
-93 -10 -36 -3 -72 -8 -80 -10 -8 -2 -49 -7 -90 -10 -41 -4 -84 -9 -95 -11
-11 -2 -56 -7 -100 -10 -44 -3 -82 -7 -85 -9 -3 -2 -44 -7 -90 -10 -47 -4 -88
-9 -91 -11 -3 -1 -39 -6 -80 -9 -41 -4 -87 -8 -104 -10 -62 -8 -131 -16 -165
-20 -91 -8 -157 -16 -180 -21 -65 -14 -27 1 530 205 58 22 175 65 260 97 247
91 312 115 360 132 62 21 88 40 107 75 14 27 15 206 15 1719 1 1550 2 1688 17
1689 51 3 116 11 120 15 24 24 26 -86 26 -1885z"/>
<path d="M3489 2047 c-37 -30 -46 -67 -44 -172 2 -106 19 -149 68 -168 56 -23
117 4 140 64 12 30 13 71 8 205 -1 20 -12 43 -30 63 -37 40 -101 44 -142 8z"/>
</g>
</svg>
